<svg width="800" height="600" xmlns="http://www.w3.org/2000/svg" xmlns:svg="http://www.w3.org/2000/svg">
 <!-- Created with SVG-edit - http://svg-edit.googlecode.com/ -->
 <g>
  <title>Layer 1</title>
  <path transform="rotate(0.3081306517124176 140.18002319332678,436.47167968750165) " stroke="#000000" id="svg_1" d="m215.68001,359.91611c0,21.14024 -33.80251,38.27778 -75.50001,38.27778m75.50001,-38.27778l0,0c0,21.14024 -33.80251,38.27778 -75.50001,38.27778c-41.69749,0 -75.49999,-17.13751 -75.49999,-38.27778m0,0l0,0c0,-21.14021 33.8025,-38.27777 75.49999,-38.27777c41.69751,0 75.50001,17.13756 75.50001,38.27777l0,153.1112c0,21.14021 -33.80251,38.27772 -75.50001,38.27772c-41.69749,0 -75.49999,-17.1375 -75.49999,-38.27772l0,-153.1112z" stroke-width="5" fill="#7f7f7f"/>
  <path stroke="#000000" id="svg_2" transform="rotate(0.3081306517124176 416.5000305175764,454.0000305175793) " d="m471.36587,394.03738c0,16.55822 -24.56428,29.98132 -54.86586,29.98132m54.86586,-29.98132l0,0c0,16.55822 -24.56428,29.98132 -54.86586,29.98132c-30.30157,0 -54.86584,-13.42306 -54.86584,-29.98132m0,0l0,0c0,-16.55821 24.56428,-29.98132 54.86584,-29.98132c30.30157,0 54.86586,13.4231 54.86586,29.98132l0,119.92532c0,16.55821 -24.56428,29.98127 -54.86586,29.98127c-30.30157,0 -54.86584,-13.42306 -54.86584,-29.98127l0,-119.92532z" stroke-width="5" fill="#7f7f7f"/>
  <path stroke="#000000" id="svg_3" transform="rotate(0.3081306517124176 719.4999999999923,456.5000305175801) " d="m767.33101,400.84555c0,15.36855 -21.41467,27.82723 -47.831,27.82723m47.831,-27.82723l0,0c0,15.36855 -21.41467,27.82723 -47.831,27.82723c-26.41632,0 -47.83099,-12.45865 -47.83099,-27.82723m0,0l0,0c0,-15.36854 21.41466,-27.82723 47.83099,-27.82723c26.41633,0 47.831,12.45869 47.831,27.82723l0,111.30897c0,15.36854 -21.41467,27.82719 -47.831,27.82719c-26.41632,0 -47.83099,-12.45865 -47.83099,-27.82719l0,-111.30897z" stroke-width="5" fill="#7f7f7f"/>
  <path d="m88,430c0,1.84668 0,2.68668 0,3.68668c0,0.85498 0,1.47498 0,2.83514c0,0.74435 0,1.54068 0,2.397c0,0.45319 0,1.92416 0,2.45184c0,1.10132 0,1.67099 0,2.83835c0,0.59366 0,1.79099 0,2.991c0,0.59998 0,1.19998 0,2.39999c0,0.60001 0,1.19998 0,3c0,0.60001 0,1.19998 0,2.39999c0,0.60001 0,1.20001 0,3c0,0.59982 0,1.19867 0,2.38934c0,0.58981 0,1.17465 0,2.32532c0,1.11868 0,2.20001 0,2.72818c0,1.03632 0,1.54648 0,2.55582c0,1.50101 0,1.99869 0,2.98001c0,0.47968 0,1.40701 0,2.68799c0,0.76401 0,1.8125 0,2.48151c0,1.01849 0.01521,1.73758 -0.02084,2.87268c-0.0249,0.78412 -0.13203,1.98132 -0.26316,2.77515c-0.12791,0.77435 -0.29882,1.49429 -0.43201,2.14801c-0.24165,1.18607 -0.284,2.22266 -0.284,2.88135c0,1.008 0.03181,1.80063 -0.0045,2.8363c-0.02808,0.80127 -0.21069,1.76126 -0.42083,2.56369c-0.21571,0.82367 -0.48251,1.85034 -0.53867,2.54932c-0.07288,0.90707 -0.036,1.90802 -0.036,2.7045l0,0.7515" id="svg_4" stroke-linecap="null" stroke-linejoin="null" stroke-dasharray="null" stroke-width="5" stroke="#000000" fill="none"/>
  <path d="m119,426c-0.22134,3.30817 -0.35423,4.40366 -0.42533,5.02267c-0.07634,0.66464 -0.15315,1.3743 -0.222,2.12848c-0.07271,0.79648 -0.19116,2.51526 -0.23117,3.43469c-0.04151,0.95395 -0.06747,1.93826 -0.08549,2.94748c-0.01837,1.02911 -0.02684,2.07333 -0.0315,3.1275c-0.00468,1.05917 -0.004,3.17252 -0.00467,4.21783c-0.00066,1.03732 -0.00232,2.06866 -0.0105,3.09601c-0.00816,1.02536 -0.02189,2.05075 -0.0465,3.078c-0.02471,1.03143 -0.10572,3.1142 -0.16417,4.16849c-0.05886,1.06171 -0.13026,2.12708 -0.20399,3.19351c-0.0736,1.06454 -0.15096,2.12387 -0.222,3.17551c-0.07028,1.04037 -0.19011,3.07629 -0.23117,4.06631c-0.04018,0.96869 -0.06712,1.91562 -0.08549,2.83951c-0.01789,0.89978 -0.02679,1.77466 -0.0315,2.6235c-0.00457,0.82184 -0.0045,2.38049 -0.0045,3.116c0,0.7085 0,1.39301 0,2.05649c0,0.64551 0,1.276 0,1.8945c0,0.6095 0,1.81351 0,2.41299c0,0.59653 0,1.18701 0,1.76852c0,0.56949 0,1.12399 0,1.66049c0,0.5155 0,1.4715 0,1.90683c0,0.40735 0,0.78867 0,1.146c0,0.33533 0,0.65067 0,0.948l0,0.80402l0,0.7095l0,0.85266" id="svg_5" stroke-linecap="null" stroke-linejoin="null" stroke-dasharray="null" stroke-width="5" stroke="#000000" fill="none"/>
  <path d="m156,435c-0.94733,1.45117 -1.00002,2.1875 -1.02533,2.62268c-0.0587,1.00931 -0.13905,2.21085 -0.19617,2.88565c-0.06139,0.72522 -0.1351,1.50006 -0.21451,2.32501c-0.08423,0.87506 -0.17552,1.7999 -0.26849,2.77499c-0.09773,1.0249 -0.29745,3.22485 -0.39551,4.39966c-0.10202,1.22247 -0.20152,2.49121 -0.29999,3.80402c-0.10159,1.35452 -0.20123,2.74924 -0.3,4.18198c-0.10126,1.4686 -0.30043,4.50598 -0.40018,6.07083c-0.10159,1.59381 -0.20319,3.21573 -0.31049,4.8645c-0.10901,1.6749 -0.2227,3.37485 -0.34651,5.09851c-0.12549,1.74701 -0.40633,5.30579 -0.564,7.11334c-0.15833,1.81509 -0.32651,3.62372 -0.4935,5.41348c-0.16402,1.75787 -0.32632,3.47046 -0.47549,5.12552c-0.14273,1.58362 -0.3824,4.48608 -0.46684,5.78284c-0.07774,1.194 -0.13339,2.29446 -0.17099,3.30899c-0.0347,0.93619 -0.05345,1.80264 -0.063,2.60699c-0.00891,0.75031 -0.009,2.121 -0.009,2.75601c0,0.60498 0,1.17999 0,1.72498c0,0.51501 0,1 0,1.45502l0,0.42499" id="svg_6" stroke-linecap="null" stroke-linejoin="null" stroke-dasharray="null" stroke-width="5" stroke="#000000" fill="none"/>
  <path d="m184,447c1.52083,0.625 1.91574,1.21503 2.3215,2.20834c0.36324,0.88922 0.52141,1.42282 0.69933,2c0.39925,1.29529 0.59637,2.02112 0.97917,3.625c0.20831,0.8728 0.40442,1.79727 0.591,2.77048c0.19507,1.01746 0.37616,2.08237 0.537,3.19351c0.16684,1.15256 0.33357,2.34784 0.53867,4.86932c0.10719,1.31793 0.17003,2.67307 0.21899,4.0575c0.04984,1.40894 0.07671,2.83829 0.093,4.2825c0.0164,1.45416 0.01999,2.91336 0.02133,5.82669c0.00066,1.44583 0,2.88666 0,4.32748c0,1.44583 0,2.90167 0,4.3725c0,1.49084 0,3.00668 0,6.13333c0,1.61768 0,3.26135 0,4.91702c0,1.65366 0,3.29132 0,4.89899c0,1.56366 0,3.06934 0,5.85068c0,1.25116 0,2.40933 0,3.48148c0,0.99316 0,1.91437 0,2.77051c0,0.79816 0,1.54535 0,2.91467c0,0.63519 0,1.24133 0,1.81952c0,0.55115 0,1.07629 0,1.57648l0,0.4762l0,0.45313" id="svg_7" stroke-linecap="null" stroke-linejoin="null" stroke-dasharray="null" stroke-width="5" stroke="#000000" fill="none"/>
  <path d="m118,362c0.52084,-1.54166 1.11876,-2.53583 1.4,-3.28265c0.21444,-0.56946 0.39498,-1.20682 0.804,-2.60535c0.22523,-0.77014 0.32795,-1.18616 0.6675,-2.03082c0.57731,-1.43619 0.88583,-1.92767 1.18184,-2.44919c0.61914,-1.09082 0.96659,-1.63254 1.30666,-2.18134c0.33826,-0.54587 1.31029,-2.11517 1.59683,-2.60715c0.53107,-0.91177 0.76002,-1.33978 1.18584,-2.11417c0.36892,-0.6709 1.07151,-1.88239 1.55283,-2.41583c0.66663,-0.73886 1.50202,-1.26962 2.18983,-1.31216c0.97015,-0.06 1.6335,-0.00134 2.75768,-0.00134c0.67133,0 1.77834,0 2.55966,0c1.19749,0 2.00183,0 2.81816,0c0.41518,0 1.26451,0 2.60017,0c0.92267,0 1.83733,0 2.28166,0c0.84267,0 2.24268,0 3.05566,0c0.72301,0 1.72775,-0.01944 2.5625,0.02084c0.88184,0.04254 1.79793,0.13855 2.6685,0.43649c0.87697,0.30014 1.68515,0.83557 2.349,1.55249c0.44942,0.48535 0.99374,1.29636 1.44017,2.069c0.40265,0.69687 0.75067,1.41956 1.12134,2.56418c0.21542,0.66525 0.39915,1.39468 0.543,2.16599c0.22112,1.1857 0.27811,1.99335 0.33183,2.81235c0.05579,0.85031 0.09622,1.75055 0.192,2.71201c0.10323,1.03616 0.18529,1.57208 0.33333,2.66666c0.07431,0.54941 0.22992,1.63049 0.33333,2.66666c0.09555,0.95749 0.14134,1.82935 0.192,2.604l0.05867,0.67068l0.27316,1.18265" id="svg_8" stroke-linecap="null" stroke-linejoin="null" stroke-dasharray="null" stroke-width="5" stroke="#000000" fill="none"/>
  <path d="m394,395c1.70001,0 2.66653,0.07404 3.42133,-0.45734c0.61554,-0.43332 1.35275,-1.31134 1.85068,-1.82532c0.55313,-0.57098 1.13922,-1.19794 1.728,-1.884c0.61026,-0.71112 1.20996,-1.46991 1.52084,-1.85419c0.63489,-0.78482 0.94861,-1.1944 2.00067,-2.379c0.35849,-0.40366 1.11072,-1.19324 1.49933,-1.57932c0.77625,-0.77121 1.16595,-1.1521 2.37881,-2.19901c0.39304,-0.33926 1.17194,-0.97388 1.92834,-1.53918c0.69492,-0.51935 1.61316,-1.16644 2.38934,-1.59998c0.60501,-0.33792 1.53336,-0.65408 2.616,-0.68268c0.68076,-0.01797 1.48798,0 2.66666,0c0.60001,0 1.5,0 2.39999,0c0.89999,0 1.80002,0 2.70001,0c0.89999,0 1.79099,0 2.62799,0c1.12918,0 1.88715,-0.02737 2.75601,0.00134c0.86465,0.02859 1.75684,0.3653 2.39999,0.79999c0.76117,0.51447 1.55762,0.86789 2.22934,1.68268c0.5209,0.63187 0.82156,1.4888 0.88217,2.32584c0.06958,0.961 0.00449,1.7735 0.00449,2.41348c0,1.11002 0,1.94467 0,2.82733c0,0.89868 0,1.78134 0,3.00635l0,0.72867l0,0.67267l0,0.939" id="svg_9" stroke-linecap="null" stroke-linejoin="null" stroke-dasharray="null" stroke-width="5" stroke="#000000" fill="none"/>
  <path d="m383,448c-0.00015,4.85083 0,5.60001 -0.00449,6.40918c-0.00479,0.86417 -0.01379,1.77835 -0.03152,2.73749c-0.01846,0.99924 -0.03683,2.03384 -0.13065,4.18668c-0.0484,1.11096 -0.11624,2.24548 -0.19052,3.40799c-0.07632,1.19482 -0.16324,2.42535 -0.25348,3.69601c-0.09338,1.3147 -0.19574,2.67697 -0.38934,5.56265c-0.10251,1.52765 -0.20078,3.10254 -0.2955,4.71149c-0.09595,1.62973 -0.18622,3.26755 -0.26849,4.90051c-0.08136,1.61472 -0.16177,3.19824 -0.26935,6.22134c-0.05035,1.41513 -0.08429,2.7626 -0.1095,4.04398c-0.02396,1.21729 -0.03812,2.37265 -0.04648,3.46802c-0.0079,1.03732 -0.01001,2.01868 -0.01068,3.82132c-0.00031,0.82516 0,1.60135 0,2.3295c0,0.68118 0,1.31635 0,1.90652c0,0.54614 0,1.04932 0,1.93066c0,0.38049 0,0.724 0,1.03348c0,0.2785 0,0.52902 0,0.75452l0,0.20349l0,0.18451" id="svg_10" stroke-linecap="null" stroke-linejoin="null" stroke-dasharray="null" stroke-width="5" stroke="#000000" fill="none"/>
  <path d="m400,459c0,10.33334 0,11.215 0,12.06668c0,0.83167 0,1.65332 0,2.47498c0,0.83167 0,1.68335 0,2.565c0,1.89334 0,2.92166 0,4c0,1.11835 0,2.26666 0,3.435c0,1.17834 0,2.35669 0,3.52502c0,2.26666 0,3.34683 0,4.388c0,1.00314 0,1.96933 0,2.89948c0,0.89517 0,1.75635 0,2.5845c0,1.56134 0,2.29602 0,2.99869c0,0.66864 0,1.30133 0,1.896l0,0.55466l0,0.51266l0,0.46866" id="svg_11" stroke-linecap="null" stroke-linejoin="null" stroke-dasharray="null" stroke-width="5" stroke="#000000" fill="none"/>
  <path d="m425,453c0,26.5 0,28.80585 0,31.02667c0,2.14084 0,4.20667 0,6.20248c0,1.93085 0,3.80167 0,5.61752c0,3.48666 0,5.16617 0,6.80264c0,1.59052 0,3.13202 0,4.62152c0,1.43448 0,2.811 0,4.1265c0,2.43597 -0.00092,3.55133 0.00134,4.59863c0.00214,0.98138 0.00626,1.89874 0.0195,2.75403c0.0123,0.79541 0.0274,1.53308 0.06448,2.21399c0.06555,1.20367 0.12967,1.729 0.19867,2.20667c0.0629,0.43536 0.13745,0.82886 0.216,1.18353c0.07117,0.32129 0.1474,0.60901 0.216,0.86847c0.11743,0.44403 0.16376,0.63391 0.19998,0.80536c0.03232,0.15295 0.05698,0.28967 0.08401,0.40948c0.02383,0.10553 0.04443,0.2002 0.08401,0.27448c0.06906,0.12958 0.13406,0.17395 0.20132,0.19739c0.0694,0.02417 0.15067,0.01196 0.2355,-0.01355l0.08981,-0.05048l0.09384,-0.07849l0.09683,-0.1095" id="svg_12" stroke-linecap="null" stroke-linejoin="null" stroke-dasharray="null" stroke-width="5" stroke="#000000" fill="none"/>
  <path d="m448,448c1,9.16666 1.10297,10.35043 1.19867,11.59866c0.10013,1.30576 0.19434,2.66379 0.28049,4.06799c0.08859,1.44379 0.17047,2.92169 0.2355,4.42801c0.13257,3.07141 0.16708,4.62677 0.20132,6.19067c0.03442,1.57178 0.05872,3.15067 0.08401,4.7355c0.02536,1.58981 0.04773,3.18375 0.08401,4.78049c0.07272,3.19891 0.13321,4.79785 0.20132,6.39066c0.0676,1.58121 0.14731,3.1442 0.2355,4.68301c0.08652,1.50919 0.17969,2.98227 0.28049,4.41299c0.19113,2.71255 0.2963,3.98254 0.39868,5.19467c0.09769,1.15652 0.19751,2.25891 0.29999,3.30899c0.09766,1.00058 0.1962,1.95309 0.29999,2.85901c0.1929,1.6835 0.29797,2.46274 0.39868,3.20132c0.09506,0.69708 0.19067,1.35065 0.28049,1.96051l0.08484,0.56482l0.07883,0.51886l0.07184,0.4718" id="svg_13" stroke-linecap="null" stroke-linejoin="null" stroke-dasharray="null" stroke-width="5" stroke="#000000" fill="none"/>
  <path d="m698,400c1.70001,-0.05716 2.54633,-0.55771 2.97064,-0.97198c0.81158,-0.79233 1.32269,-1.32135 1.92267,-1.92136c0.67999,-0.67999 1.44049,-1.43951 1.84918,-1.84933c0.85931,-0.86166 1.29877,-1.3067 1.73669,-1.75732c0.43542,-0.44809 1.28052,-1.32037 2.02081,-2.16666c0.6571,-0.75122 1.1958,-1.45624 1.70398,-2.07602c0.47107,-0.57455 1.18994,-1.37042 2.03204,-2.01065c0.55737,-0.42374 1.14264,-0.8075 2.36267,-1.36002c0.58075,-0.263 1.43292,-0.58002 2.47998,-0.76517c0.69049,-0.1221 1.60535,-0.12082 2.60535,-0.12149c0.81598,-0.00055 1.63196,0 2.63062,0c0.87469,0 1.89832,-0.10654 2.66455,0.04166c0.88617,0.17136 1.43073,0.81787 1.81946,1.64633c0.45673,0.97324 0.60565,1.54654 0.90137,2.4165c0.40576,1.1937 0.61102,1.79559 0.77917,2.41635c0.25964,0.95825 0.41553,1.9989 0.46362,2.72281c0.07025,1.05771 0.05585,1.70169 0.05719,2.88486l0,0.9715" id="svg_14" stroke-linecap="null" stroke-linejoin="null" stroke-dasharray="null" stroke-width="5" stroke="#000000" fill="none"/>
  <path d="m693,447c0,10 0,11.00067 0,12.00534c0,1.01266 0,2.03732 0,3.078c0,1.06067 0,2.14532 0,3.258c0,2.32532 0,3.54416 0,4.79599c0,1.27783 0,2.57468 0,3.88351c0,1.31381 0,2.62567 0,3.9285c0,2.55066 -0.00085,3.78549 0.00134,4.98932c0.00214,1.17184 0.00653,2.3107 0.01947,3.4155c0.01251,1.06989 0.02887,2.10391 0.06451,3.10052c0.0672,1.87921 0.13049,2.75928 0.20001,3.59998c0.06641,0.80362 0.14594,1.56989 0.23547,2.2995c0.08539,0.69574 0.17853,1.35718 0.28052,1.9845c0.18909,1.16293 0.29657,1.69675 0.39734,2.20135c0.09497,0.47537 0.19067,0.91998 0.28052,1.33499l0.08484,0.38501l0.0788,0.35498l0.07184,0.32501" id="svg_15" stroke-linecap="null" stroke-linejoin="null" stroke-dasharray="null" stroke-width="5" stroke="#000000" fill="none"/>
  <path d="m706,447c0.22131,4.41568 0.28491,5.25861 0.35266,6.18967c0.07367,1.01294 0.15021,2.10181 0.22198,3.26099c0.07574,1.22284 0.15668,2.50342 0.25867,5.216c0.05334,1.41907 0.08496,2.87463 0.11401,4.362c0.0296,1.51532 0.05182,3.05469 0.078,4.61401c0.02649,1.57532 0.04529,3.16302 0.14136,6.35733c0.0481,1.59955 0.11487,3.19485 0.19049,4.78201c0.07507,1.5755 0.16089,3.1348 0.25348,4.67398c0.09119,1.5155 0.18604,3.00302 0.38934,5.87735c0.0976,1.37982 0.19843,2.71735 0.29547,4.01099c0.09363,1.24771 0.18488,2.44724 0.26855,3.59702c0.0799,1.09756 0.16022,2.14075 0.26929,4.05865c0.0495,0.87042 0.08411,1.68524 0.1095,2.448c0.02374,0.71457 0.03815,1.38531 0.04651,2.01599c0.00787,0.59464 0.00983,1.15735 0.01068,2.20267c0.00043,0.48969 -0.00037,0.95737 0.00452,1.40103c0.00458,0.41766 0.01227,0.8075 0.03149,1.16699c0.01752,0.32788 0.01959,0.62738 0.13068,1.09863c0.04321,0.18341 0.10632,0.33063 0.18597,0.42902c0.06451,0.07971 0.14734,0.11267 0.22198,0.12299l0.07269,-0.01764l0.06866,-0.0437" id="svg_16" stroke-linecap="null" stroke-linejoin="null" stroke-dasharray="null" stroke-width="5" stroke="#000000" fill="none"/>
  <path d="m726,449c0.16669,7.66666 0.21912,8.58533 0.284,9.53467c0.06641,0.97165 0.14117,1.95599 0.216,2.94449c0.07446,0.98352 0.15063,1.95276 0.216,2.89951c0.12347,1.78757 0.16614,2.61536 0.19867,3.40799c0.03168,0.77237 0.052,1.53995 0.06451,2.3175c0.01288,0.80249 0.01758,1.64502 0.01947,2.54251c0.00427,2.01999 0.00134,3.1665 0.00134,4.392c0,1.28351 0,2.604 0,3.94049c0,1.33151 0,2.63702 0,3.89551c0,2.29199 -0.00098,3.28851 0.00134,4.18399c0.00214,0.8035 0.00934,1.52402 0.01947,2.1705l0.0152,0.58151l0.02118,0.52551l0.02814,0.47849" id="svg_17" stroke-linecap="null" stroke-linejoin="null" stroke-dasharray="null" stroke-width="5" stroke="#000000" fill="none"/>
  <path d="m751,443c-1.32147,3.086 -1.65857,4.02817 -1.836,4.54401c-0.37762,1.09766 -0.56885,1.67386 -0.76532,2.26132c-0.39941,1.19443 -0.79999,2.39743 -0.98969,3.00818c-0.19171,0.61725 -0.39233,1.24298 -0.69464,2.55798c-0.15668,0.68164 -0.39111,2.12738 -0.47137,2.89285c-0.08276,0.78928 -0.13489,1.60236 -0.17096,2.43298c-0.03668,0.84409 -0.05371,1.69864 -0.06305,2.55902c-0.00934,0.86227 -0.00897,2.577 -0.00897,3.42264c0,0.83969 0,1.67734 0,2.51703c0,0.84564 0,1.70132 0,2.57098c0,0.88766 0,2.733 0,3.69766c0,0.99268 0,2.01135 0,3.05402c0,1.06467 0,2.14932 0,3.25198c0,1.11868 0,3.396 0,4.55084c0,1.16382 0,2.33566 0,3.5145c0,1.18484 0,2.37466 0,3.56851c0,1.19681 0,3.59549 0,4.79498c0,1.1965 0,2.38699 0,3.56851c0,1.16949 0,2.32401 0,3.46048c0,1.11551 0,3.27151 0,4.30634c0,1.00385 0,1.97568 0,2.91452c0,0.90485 0,1.77466 0,2.60852c0,0.79681 -0.00165,2.27545 0.00049,2.95563c0.00201,0.64117 0.00598,1.24457 0.03149,1.81049c0.02393,0.53058 0.07599,1.02533 0.13953,1.48651l0.08447,0.42816" id="svg_18" stroke-linecap="null" stroke-linejoin="null" stroke-dasharray="null" stroke-width="5" stroke="#000000" fill="none"/>
 </g>
</svg>