<svg width="120" height="350" xmlns="http://www.w3.org/2000/svg" xmlns:svg="http://www.w3.org/2000/svg">
 <g>
  <title>Layer 1</title>
  <g id="svgg">
   <path fill-rule="evenodd" fill="#000000" d="m69.791,8.84433c-1.125,0.419 -1.592,1.479 -1.592,3.616c0,3.652 -1.022,4.458 -3.672,2.895c-0.944,-0.557 -1.932,-0.759 -3.411,-0.697c-1.888,0.08 -2.194,-0.032 -3.29,-1.206c-3.999,-4.277 -2.704,1.479 2.001,8.898c1.482,2.338 1.534,3.806 0.414,11.802c-1.149,8.199 -1.174,14.376 -0.077,18.471c0.507,1.892 0.871,4.425 0.871,6.062c0,2.347 0.206,3.23 1.245,5.338c1.515,3.072 1.118,4.472 -1.863,6.573c-0.981,0.692 -1.973,1.752 -2.204,2.356c-0.231,0.603 -0.853,1.98 -1.381,3.059c-1.118,2.284 -1.132,2.253 1.099,2.502c1.576,0.176 1.84,0.064 3.355,-1.424l1.644,-1.615l6.714,0.05c3.859,0.029 7.949,-0.163 9.617,-0.452c3.7,-0.641 4.231,-0.488 7.462,2.161c2.943,2.412 3.561,2.578 5.094,1.372c0.945,-0.743 1.273,-1.532 2.02,-4.849c0.348,-1.545 1.967,-2.538 3.213,-1.97c1.764,0.803 2.152,1.995 2.757,8.453c0.343,3.668 0.888,7.041 1.351,8.36c0.427,1.217 0.899,3.187 1.048,4.378c0.15,1.192 0.627,4.137 1.061,6.545c0.433,2.408 1.04,5.811 1.349,7.562c0.308,1.751 0.651,5.154 0.761,7.562c0.11,2.408 0.399,5.005 0.642,5.772c0.25,0.787 0.504,5.37 0.584,10.547c0.156,9.987 0.635,15.183 1.803,19.551c0.417,1.559 1.03,5.32 1.364,8.358c0.333,3.038 0.695,6.29 0.805,7.227c0.109,0.937 0.581,2.592 1.049,3.679c1.671,3.884 -3.519,5.645 -11.086,3.76c-4.592,-1.143 -4.255,-0.665 1.916,2.716c3.95,2.164 4.243,3.462 1.472,6.52c-1.044,1.151 -0.603,1.721 1.33,1.721c2.041,0 3.536,-1.375 3.549,-3.265c0.012,-1.879 1.313,-4.489 3.015,-6.047c1.994,-1.827 2.911,-8.308 1.724,-12.183c-0.234,-0.765 -0.672,-3.002 -0.972,-4.972c-0.301,-1.971 -1.123,-6.806 -1.826,-10.747c-1.18,-6.612 -1.274,-7.762 -1.208,-14.925c0.047,-5.147 -0.131,-9.169 -0.527,-11.94c-0.329,-2.299 -0.602,-5.227 -0.606,-6.508c-0.004,-1.281 -0.357,-4.326 -0.785,-6.766c-0.428,-2.441 -1.069,-6.408 -1.425,-8.816c-0.356,-2.408 -1.248,-6.796 -1.982,-9.751c-0.735,-2.955 -1.524,-7.164 -1.755,-9.353c-0.722,-6.849 -1.967,-9.354 -4.65,-9.354c-0.751,0 -2.264,-0.47 -3.363,-1.045c-1.558,-0.814 -2.379,-1.002 -3.724,-0.85c-2.471,0.278 -3.912,-0.474 -5.15,-2.688c-1.788,-3.199 -1.483,-5.117 1.736,-10.939c3.644,-6.589 4.581,-10.658 2.832,-12.292c-1.686,-1.575 -1.639,-2.434 0.133,-2.434c2.994,0 6.162,-8.798 4.148,-11.522c-0.78,-1.055 -0.81,-1.331 -0.398,-3.698c1.095,-6.285 0.468,-8.299 -1.913,-6.148c-2.096,1.894 -3.737,1.687 -4.488,-0.565c-0.121,-0.362 -0.611,-0.05 -1.484,0.945c-2.087,2.377 -2.717,1.824 -5.082,-4.458c-1.245,-3.308 -1.509,-3.609 -3.169,-3.609c-0.748,0 -2.025,-0.337 -2.837,-0.748c-1.623,-0.823 -4.323,-1.323 -5.258,-0.975m17.285,5.874c-0.154,0.615 -0.087,1.265 0.155,1.508c0.303,0.303 0.505,0.114 0.698,-0.656c0.154,-0.615 0.087,-1.265 -0.155,-1.508c-0.303,-0.303 -0.505,-0.114 -0.698,0.656m-20.141,6.33c0.073,0.376 -0.124,0.663 -0.455,0.663c-0.63,0 -1.169,-0.959 -0.766,-1.362c0.403,-0.403 1.083,-0.014 1.221,0.699m15.679,7.33c1.55,1.777 1.619,2.388 0.696,6.124c-1.873,7.58 -4.236,6.876 -3.893,-1.16c0.221,-5.19 1.401,-7.022 3.197,-4.964m4.94,1.5c-0.134,0.352 -0.434,0.523 -0.665,0.38c-0.289,-0.178 -0.272,-0.438 0.054,-0.831c0.578,-0.697 0.947,-0.424 0.611,0.451m-12.036,1.336c2.028,2.242 0.523,12.652 -1.898,13.118c-1.925,0.371 -2.718,-2.053 -1.656,-5.062c0.319,-0.906 0.692,-3.033 0.828,-4.727c0.353,-4.398 1.02,-5.213 2.726,-3.329m0.562,22.418c0.663,0.663 0.598,2.906 -0.102,3.488c-0.903,0.749 -1.411,0.124 -1.411,-1.734c0,-2.194 0.497,-2.77 1.513,-1.754m4.697,8.117c3.021,1.689 3.453,2.315 2.922,4.237c-0.523,1.893 -1.671,3.271 -3.248,3.898c-0.719,0.286 -2.16,1.133 -3.203,1.883c-2.636,1.895 -8.838,1.878 -10.477,-0.028c-2.135,-2.484 -0.717,-5.231 2.928,-5.67c3.401,-0.41 4.702,-1.079 5.628,-2.893c1.667,-3.269 2.001,-3.356 5.45,-1.427m-28.966,15.884c-0.148,0.149 -2.745,0.315 -5.771,0.37c-8.526,0.156 -8.987,0.496 -12.189,8.982c-2.167,5.741 -2.721,7.8 -3.433,12.736c-0.205,1.423 -0.758,4.826 -1.23,7.562c-0.724,4.204 -0.816,5.808 -0.589,10.349c0.236,4.725 0.168,5.754 -0.563,8.532c-0.715,2.715 -0.834,4.34 -0.845,11.542c-0.014,9.221 -0.666,16.526 -1.938,21.717c-0.456,1.86 -0.831,3.786 -0.832,4.278c-0.006,1.923 -1.226,2.473 -5.271,2.377c-3.555,-0.085 -3.777,-0.038 -5.684,1.188c-3.683,2.369 -3.899,3.322 -3.984,17.629c-0.071,11.764 -0.219,13.203 -2.377,23.085c-0.944,4.32 -0.671,13.94 0.431,15.17c1.254,1.4 6.377,3.537 8.474,3.534c4.843,-0.006 6.156,-1.225 5.786,-5.371c-0.369,-4.135 0.529,-15.623 1.663,-21.271c1.69,-8.417 2.454,-9.152 7.74,-7.452c3.467,1.114 4.235,1.052 4.782,-0.386c0.721,-1.896 -0.143,-2.953 -2.183,-2.674c-3.355,0.46 -7.586,-1.914 -7.859,-4.41c-0.328,-2.995 5.115,-2.884 8.226,0.169c2.026,1.989 1.861,2.012 3.729,-0.517c1.174,-1.589 1.956,-2.231 3.155,-2.59c1.875,-0.562 2.333,-1.412 1.47,-2.729c-0.641,-0.977 -0.775,-0.96 -2.579,0.333c-1.454,1.043 -8.14,1.469 -9.768,0.623c-3.219,-1.674 -4.25,-4.532 -2.919,-8.091c0.854,-2.282 1.066,-4.485 1.315,-13.691c0.068,-2.518 0.338,-5.563 0.601,-6.767c0.272,-1.246 0.54,-6.476 0.623,-12.139c0.165,-11.26 0.976,-18.898 2.408,-22.705c1.21,-3.213 1.719,-7.321 2.118,-17.096c0.301,-7.362 0.401,-8.11 1.327,-9.95c0.55,-1.095 1.311,-2.936 1.689,-4.092c1.62,-4.947 4.352,-6.34 10.284,-5.243c3.137,0.58 8.637,-1.345 7.396,-2.589c-0.389,-0.39 -2.903,-0.715 -3.203,-0.413m38.432,76.914c0.12,0.602 0.333,1.766 0.474,2.587c0.396,2.301 1.115,1.851 0.803,-0.502c-0.318,-2.397 -0.591,-3.18 -1.107,-3.18c-0.213,0 -0.289,0.493 -0.17,1.095m1.224,10.894c-1.051,3.313 0.571,16.632 2.6,21.349c1.118,2.6 0.946,4.051 -0.594,4.996c-3.86,2.369 -5.986,3.461 -7.737,3.974c-1.084,0.317 -2.881,1.246 -3.994,2.063c-5.184,3.805 -9.717,3.448 -9.285,-0.731c0.18,-1.744 -0.004,-2.594 -1.173,-5.441c-0.762,-1.855 -1.598,-4.03 -1.858,-4.833c-1.157,-3.58 -2.062,-3.017 -4.346,2.701c-3.29,8.239 -3.809,12.733 -0.937,8.113c0.801,-1.289 1.512,-1.991 2.016,-1.991c1.128,0 4.03,3.783 4.03,5.253c0,1.562 0.659,2.708 1.559,2.708c0.967,0 5.877,-1.853 7.409,-2.797c0.664,-0.409 2.097,-0.93 3.184,-1.158c1.088,-0.229 3.008,-0.715 4.267,-1.08c4.234,-1.228 5.264,0.203 4.117,5.72c-0.742,3.573 -0.678,4.141 0.782,6.925c0.967,1.844 2.295,9.455 3.359,19.255c0.238,2.189 0.794,7.204 1.235,11.145c0.442,3.94 0.959,9.761 1.149,12.935c0.191,3.174 0.469,6.935 0.62,8.358c0.151,1.423 0.07,4.476 -0.179,6.784c-0.498,4.615 -0.173,6.526 1.184,6.957c1.719,0.545 1.913,-1.194 1.178,-10.557c-0.215,-2.736 -0.584,-8.109 -0.82,-11.94c-0.236,-3.831 -0.679,-8.219 -0.984,-9.751c-1.281,-6.439 -1.476,-7.797 -1.805,-12.538c-0.81,-11.709 -1.175,-16.071 -1.403,-16.791c-0.134,-0.422 -0.5,-4.025 -0.813,-8.008c-0.314,-3.982 -0.674,-7.981 -0.8,-8.885c-0.269,-1.934 -0.109,-2.079 2.979,-2.69c2.937,-0.581 3.56,-1.644 2.608,-4.449c-0.427,-1.258 -0.554,-2.457 -0.381,-3.608c0.244,-1.63 0.172,-1.808 -1.313,-3.224c-2.519,-2.403 -3.679,-7.947 -2.108,-10.072l0.861,-1.165l-1.156,-1.597c-0.636,-0.878 -1.472,-2.761 -1.858,-4.185c-0.733,-2.709 -1.144,-3.159 -1.593,-1.745m-68.104,8.099c0.259,0.674 -0.818,1.922 -1.365,1.584c-0.424,-0.262 -0.49,-1.514 -0.101,-1.904c0.459,-0.458 1.232,-0.289 1.466,0.32m28.916,31.894c-4.557,1.92 -4.396,1.907 -13.03,1.112c-3.061,-0.281 -4.085,0.078 -4.085,1.434c0,1.464 1.016,1.747 3.634,1.012c2.448,-0.687 7.772,-0.947 13.288,-0.649c3.946,0.214 6.561,-1.315 6.561,-3.835c0,-1.35 -1.474,-1.136 -6.368,0.926m12.537,2.148c-0.629,0.656 -1.361,1.194 -1.625,1.194c-0.376,0 -2.941,2.517 -2.955,2.899c-0.117,3.131 -1.517,10.361 -2.792,14.414c-1.13,3.591 -1.733,6.37 -1.97,9.08c-0.188,2.148 -0.796,5.462 -1.35,7.363c-1.491,5.117 -2.64,10.539 -2.648,12.486c-0.008,1.88 -0.786,6.903 -1.746,11.27c-2.735,12.45 -3.545,24.363 -2.229,32.826c1.446,9.306 1.031,10.17 -5.173,10.768c-8.285,0.798 -10.219,-1.057 -10.771,-10.329c-0.164,-2.752 -0.231,-5.113 -0.149,-5.245c0.135,-0.219 0.965,-12.415 1.747,-25.681c0.169,-2.873 0.436,-5.43 0.592,-5.683c0.156,-0.253 0.532,-5.424 0.835,-11.493c0.304,-6.068 0.737,-13.093 0.964,-15.611c1.169,-12.974 1.468,-20.867 0.828,-21.879c-0.865,-1.367 -1.585,1.6 -1.598,6.581c-0.006,1.984 -0.266,5.567 -0.579,7.961c-0.314,2.394 -0.684,7.397 -0.823,11.119c-0.273,7.297 -1.3,22.309 -1.592,23.283c-0.197,0.654 -0.915,10.524 -1.404,19.304c-1.019,18.267 -1.55,26.342 -1.767,26.896c-0.856,2.188 1.201,3.582 3.554,2.407c1.821,-0.909 2.78,-0.806 3.408,0.369c0.613,1.145 0.478,1.658 -1.042,3.973l-1.429,2.176l0.214,4.641c0.144,3.127 0.058,5.054 -0.263,5.905c-1.535,4.072 9.5,3.801 14.119,-0.347l1.164,-1.045l-0.361,-5.187c-0.244,-3.497 -0.582,-5.612 -1.038,-6.493c-1.167,-2.257 -0.731,-3.747 1.282,-4.384c3.153,-0.998 3.81,-5.79 1.697,-12.394c-1.073,-3.354 -1.436,-8.512 -0.899,-12.749c0.236,-1.854 0.724,-5.788 1.085,-8.744c0.942,-7.712 3.989,-25.208 5.164,-29.651c0.29,-1.095 0.64,-3.244 0.778,-4.776c0.151,-1.669 0.979,-4.941 2.064,-8.16c1.452,-4.307 1.882,-6.231 2.168,-9.702c0.37,-4.486 2.88,-13.24 4.178,-14.569c1.33,-1.363 3.14,1.135 3.952,5.452c0.338,1.799 1.485,6.456 2.55,10.349c1.064,3.892 2.055,8.062 2.203,9.266c0.147,1.204 0.509,3.085 0.804,4.18c0.715,2.65 2.086,10.156 2.399,13.134c0.138,1.313 0.671,4.627 1.185,7.363c1.142,6.084 1.696,10.055 2.194,15.719c0.422,4.805 1.108,6.293 2.214,4.802c0.836,-1.129 -0.178,-10.557 -1.631,-15.148c-0.346,-1.094 -0.797,-3.602 -1.002,-5.572c-0.205,-1.97 -0.813,-5.821 -1.351,-8.557c-0.539,-2.736 -1.353,-7.266 -1.81,-10.067c-0.457,-2.8 -0.996,-5.526 -1.198,-6.058c-0.202,-0.532 -0.836,-3.077 -1.408,-5.655c-0.572,-2.578 -1.855,-7.464 -2.85,-10.857c-0.996,-3.393 -2.034,-7.319 -2.307,-8.725c-0.441,-2.265 -1.259,-3.613 -2.191,-3.613c-0.136,0 -0.762,0.537 -1.391,1.194m38.695,71.885c-0.53,0.53 -0.296,2.518 1.134,9.616c0.782,3.881 1.592,8.578 1.8,10.439c0.497,4.436 1.007,5.97 1.984,5.97c0.964,0 1.024,-1.552 0.156,-4.014c-0.335,-0.949 -0.772,-3.255 -0.971,-5.124c-1.062,-9.948 -3.012,-17.978 -4.103,-16.887m-22.57,13.786c0.003,2.025 0.283,4.846 0.622,6.269c0.338,1.423 0.582,3.483 0.542,4.577c-0.041,1.095 -0.052,2.389 -0.025,2.877c0.079,1.424 1.851,2.274 5.199,2.496c3.571,0.237 3.867,0.691 2.066,3.176c-0.793,1.096 -1.471,2.845 -2.038,5.259c-1.462,6.226 -0.607,6.889 8.886,6.889l5.905,0l0.961,-1.117c0.829,-0.964 0.961,-1.521 0.961,-4.067c0,-2.214 0.207,-3.347 0.828,-4.539c1.181,-2.267 0.789,-3.068 -1.889,-3.846c-2.546,-0.74 -3.715,-1.734 -3.715,-3.158c0,-1.533 -1.468,-1.906 -6.38,-1.622c-7.238,0.419 -9.011,-1.146 -9.553,-8.435c-0.175,-2.344 -0.422,-4.754 -0.55,-5.356c-0.129,-0.602 -0.327,-1.542 -0.44,-2.089c-0.548,-2.638 -1.386,-1.006 -1.38,2.686" id="path0"/>
  </g>
 </g>
</svg>